<?xml version="1.0" encoding="UTF-8" standalone="no"?>
<!-- Created with Inkscape (http://www.inkscape.org/) -->

<svg
   xmlns:dc="http://purl.org/dc/elements/1.1/"
   xmlns:cc="http://creativecommons.org/ns#"
   xmlns:rdf="http://www.w3.org/1999/02/22-rdf-syntax-ns#"
   xmlns:svg="http://www.w3.org/2000/svg"
   xmlns="http://www.w3.org/2000/svg"
   xmlns:sodipodi="http://sodipodi.sourceforge.net/DTD/sodipodi-0.dtd"
   xmlns:inkscape="http://www.inkscape.org/namespaces/inkscape"
   version="1.1"
   id="svg815"
   width="84"
   height="100"
   viewBox="0 0 84 100"
   sodipodi:docname="FotoElias.svg"
   inkscape:version="0.92.3 (2405546, 2018-03-11)">
  <metadata
     id="metadata821">
    <rdf:RDF>
      <cc:Work
         rdf:about="">
        <dc:format>image/svg+xml</dc:format>
        <dc:type
           rdf:resource="http://purl.org/dc/dcmitype/StillImage" />
        <dc:title></dc:title>
      </cc:Work>
    </rdf:RDF>
  </metadata>
  <defs
     id="defs819" />
  <sodipodi:namedview
     pagecolor="#ffffff"
     bordercolor="#666666"
     borderopacity="1"
     objecttolerance="10"
     gridtolerance="10"
     guidetolerance="10"
     inkscape:pageopacity="0"
     inkscape:pageshadow="2"
     inkscape:window-width="1366"
     inkscape:window-height="705"
     id="namedview817"
     showgrid="false"
     inkscape:zoom="0.94752309"
     inkscape:cx="101.26834"
     inkscape:cy="-47.291679"
     inkscape:window-x="-8"
     inkscape:window-y="-8"
     inkscape:window-maximized="1"
     inkscape:current-layer="svg815" />
  <g
     id="g825"
     transform="translate(1.0553791)">
    <path
       style="fill:#e1e1e1"
       d="M 0,50 V 0 h 42 42 v 50 50 H 42 0 Z M 35.683498,96.617591 C 31.658837,86.129494 27.201875,60.464792 29.079151,58.587516 c 0.290458,-0.290459 2.248577,0.696026 4.351374,2.192189 5.306433,3.775582 11.660873,3.74912 17.435895,-0.07261 l 4.220362,-2.792903 -0.466274,8.292903 C 54.228532,73.178586 52.969319,80.407544 49.474428,95.75 L 48.961896,98 H 65.480948 82 V 84.62132 71.242641 L 79.25,70.194909 C 77.7375,69.618657 74.7,68.60263 72.5,67.93707 66.188183,66.027576 59.664837,62.309499 57.657002,59.477085 55.903348,57.003239 55.891743,55.630808 57.579768,50.342901 57.903332,49.329305 57.199083,50.075 56.01477,52 c -1.409981,2.291805 -3.989881,4.362997 -7.473666,6 -3.201803,1.504502 -4.866569,2.792552 -4.180737,3.234687 0.626798,0.404078 -0.322867,0.741578 -2.110367,0.75 -1.7875,0.0084 -3.25,-0.465011 -3.25,-1.052075 0,-0.613595 -0.853362,-0.796541 -2.007238,-0.430315 -1.43253,0.454667 -2.86412,-0.219809 -5,-2.355689 C 30.346743,56.500589 29,55.59927 29,56.143677 c 0,0.544407 -1.463407,2.540965 -3.252015,4.436796 -2.296773,2.43446 -6.188804,4.584534 -13.25,7.319697 L 2.5,71.772902 2.2209749,84.886451 1.9419497,98 H 19.077964 c 14.173332,0 17.044298,-0.239008 16.605534,-1.382409 z M 50,59.106989 c 0,-0.491156 0.73865,-1.176458 1.641444,-1.522892 1.372472,-0.526667 1.434339,-0.380336 0.377555,0.893011 C 50.578873,60.212353 50,60.392948 50,59.106989 Z m -8,14.592705 c 1.925,0 5.1875,0.351448 7.25,0.780996 L 53,75.261685 v -3.692737 -3.692737 l -5.75,0.112628 c -3.1625,0.06194 -8.1125,-0.192455 -11,-0.565335 L 31,66.745541 v 4.258072 4.258072 L 34.75,74.48069 C 36.8125,74.051142 40.075,73.699694 42,73.699694 Z M 36.5,59 c -0.339919,-0.55 -1.068034,-1 -1.618034,-1 -0.55,0 -0.721885,0.45 -0.381966,1 0.339919,0.55 1.068034,1 1.618034,1 0.55,0 0.721885,-0.45 0.381966,-1 z M 50,47.998433 c 0,-1.380653 -5.436576,-4.436364 -8.182036,-4.59884 -1.708071,-0.101083 -3.886935,0.907573 -6,2.777567 L 32.5,49.113449 l 4,-0.644655 c 4.737628,-0.763534 4.399998,-0.736408 7.309017,-0.587215 1.269959,0.06513 2.071077,0.503415 1.780262,0.973964 -0.290815,0.470549 0.582628,0.643089 1.940983,0.383423 C 48.888618,48.9793 50,48.42106 50,47.998433 Z M 57.662281,44.75 c -0.277413,-0.6875 -0.504386,-0.125 -0.504386,1.25 0,1.375 0.226973,1.9375 0.504386,1.25 0.277412,-0.6875 0.277412,-1.8125 0,-2.5 z m 3.036401,-10.5 C 62.025356,27.946976 61.541847,18.773554 59.684061,15 57.295961,10.149268 48.395309,5 42.398784,5 c -5.250021,0 -11.557318,3.69036 -13.88841,8.126021 -0.830706,1.580688 -2.202478,4.192197 -3.048383,5.803353 -1.082647,2.062068 -1.39364,4.652701 -1.050394,8.75 0.268188,3.201344 0.510292,6.698126 0.538009,7.770626 0.09534,3.68914 1.734635,0.08764 3.523163,-7.740318 0.978961,-4.284674 2.019168,-7.551079 2.311571,-7.258676 0.292403,0.292403 1.023046,0.131018 1.623651,-0.358634 C 33.008596,19.60272 37.325,18.89747 42,18.52515 c 10.241291,-0.815623 11.950273,0.05792 12.945722,6.617197 l 0.679006,4.474152 -3.562364,0.222638 c -6.898658,0.431148 -9.260271,2.222204 -4.812364,3.649715 6.201055,1.990165 9.342101,1.493252 4,-0.6328 -1.5125,-0.601945 -2.212447,-1.294992 -1.555439,-1.540103 0.657009,-0.245111 2.176737,0.07999 3.377174,0.722442 1.703765,0.911828 2.356721,0.886387 2.976205,-0.11596 0.5189,-0.839598 1.032609,-0.01 1.484117,2.396755 0.885758,4.721496 2.164151,4.693565 3.166625,-0.06919 z M 32.5,34 C 32.839919,33.45 32.641476,33 32.059017,33 31.476558,33 31,33.45 31,34 c 0,0.55 0.198442,1 0.440983,1 0.242541,0 0.719098,-0.45 1.059017,-1 z m 6.416667,-1.624228 c 1.013232,-0.913787 -1.238063,-1.709513 -5.062139,-1.789226 -2.504904,-0.05221 -4.325366,0.412459 -4.589193,1.171393 -0.332487,0.956445 0.18023,1.023156 2.139238,0.278342 1.417092,-0.538777 2.527494,-0.65485 2.467558,-0.257938 -0.285026,1.887533 0.306347,2.301571 2.377869,1.664817 1.2375,-0.380388 2.4375,-0.860713 2.666667,-1.067388 z"
       id="path829"
       inkscape:connector-curvature="0" />
    <path
       style="fill:#202020"
       d="M 2.2209749,84.886451 2.5,71.772902 12.497985,67.90017 c 7.061196,-2.735163 10.953227,-4.885237 13.25,-7.319697 C 27.536593,58.684642 29,56.688084 29,56.143677 c 0,-0.544407 1.346743,0.356912 2.992762,2.002931 2.13588,2.13588 3.56747,2.810356 5,2.355689 C 38.146638,60.136071 39,60.319017 39,60.932612 c 0,0.587064 1.4625,1.060497 3.25,1.052075 1.7875,-0.0084 2.737165,-0.345922 2.110367,-0.75 C 43.674535,60.792552 45.339301,59.504502 48.541104,58 c 3.483785,-1.637003 6.063685,-3.708195 7.473666,-6 1.184313,-1.925 1.888562,-2.670695 1.564998,-1.657099 -1.688025,5.287907 -1.67642,6.660338 0.07723,9.134184 2.007835,2.832414 8.531181,6.550491 14.842998,8.459985 2.2,0.66556 5.2375,1.681587 6.75,2.257839 L 82,71.242641 V 84.62132 98 H 65.480948 48.961896 l 0.512532,-2.25 c 3.494891,-15.342456 4.754104,-22.571414 5.14608,-29.542903 l 0.466274,-8.292903 -4.220362,2.792903 c -5.775022,3.821728 -12.129462,3.84819 -17.435895,0.07261 -2.102797,-1.496163 -4.060916,-2.482648 -4.351374,-2.192189 -1.877276,1.877276 2.579686,27.541978 6.604347,38.030075 C 36.122262,97.760992 33.251296,98 19.077964,98 H 1.9419497 Z M 52.018999,58.477108 C 53.075783,57.203761 53.013916,57.05743 51.641444,57.584097 50.73865,57.930531 50,58.615833 50,59.106989 c 0,1.285959 0.578873,1.105364 2.018999,-0.629881 z M 31,71.003613 v -4.258072 l 5.25,0.677963 c 2.8875,0.37288 7.8375,0.62728 11,0.565335 L 53,67.876211 v 3.692737 3.692737 L 49.25,74.48069 C 47.1875,74.051142 43.925,73.699694 42,73.699694 c -1.925,0 -5.1875,0.351448 -7.25,0.780996 L 31,75.261685 Z M 34.5,59 c -0.339919,-0.55 -0.168034,-1 0.381966,-1 0.55,0 1.278115,0.45 1.618034,1 0.339919,0.55 0.168034,1 -0.381966,1 -0.55,0 -1.278115,-0.45 -1.618034,-1 z M 45.589279,48.855543 C 45.880094,48.384994 45.078976,47.946711 43.809017,47.881579 40.899998,47.732386 41.237628,47.70526 36.5,48.468794 l -4,0.644655 3.317964,-2.936289 c 3.787044,-3.35141 7.231327,-3.587313 11.432036,-0.782992 3.399046,2.269144 3.469462,3.235144 0.280262,3.844798 -1.358355,0.259666 -2.231798,0.08713 -1.940983,-0.383423 z M 57.157895,46 c 0,-1.375 0.226973,-1.9375 0.504386,-1.25 0.277412,0.6875 0.277412,1.8125 0,2.5 -0.277413,0.6875 -0.504386,0.125 -0.504386,-1.25 z M 57.532057,34.319186 C 57.080549,31.91244 56.56684,31.082833 56.04794,31.922431 c -0.619484,1.002347 -1.27244,1.027788 -2.976205,0.11596 -1.200437,-0.642454 -2.720165,-0.967553 -3.377174,-0.722442 -0.657008,0.245111 0.04294,0.938158 1.555439,1.540103 5.342101,2.126052 2.201055,2.622965 -4,0.6328 -4.447907,-1.427511 -2.086294,-3.218567 4.812364,-3.649715 l 3.562364,-0.222638 -0.679006,-4.474152 C 53.950273,18.583071 52.241291,17.709527 42,18.52515 c -4.675,0.37232 -8.991404,1.07757 -9.592009,1.567222 -0.600605,0.489652 -1.331248,0.651037 -1.623651,0.358634 -0.292403,-0.292403 -1.33261,2.974002 -2.311571,7.258676 -1.788528,7.82796 -3.427824,11.429458 -3.523163,7.740318 -0.02772,-1.0725 -0.269821,-4.569282 -0.538009,-7.770626 -0.343246,-4.097299 -0.03225,-6.687932 1.050394,-8.75 0.845905,-1.611156 2.217677,-4.222665 3.048383,-5.803353 C 30.841466,8.69036 37.148763,5 42.398784,5 c 5.996525,0 14.897177,5.149268 17.285277,10 1.857786,3.773554 2.341295,12.946976 1.014621,19.25 -1.002474,4.762751 -2.280867,4.790682 -3.166625,0.06919 z M 31,34 c 0,-0.55 0.476558,-1 1.059017,-1 0.582459,0 0.780902,0.45 0.440983,1 -0.339919,0.55 -0.816476,1 -1.059017,1 C 31.198442,35 31,34.55 31,34 Z m 2.881579,-0.682612 c -0.06513,-0.449564 -0.06938,-1.142134 -0.0094,-1.539045 0.05994,-0.396912 -1.050466,-0.280839 -2.467558,0.257938 -1.959008,0.744814 -2.471725,0.678103 -2.139238,-0.278342 0.263827,-0.758934 2.084289,-1.223607 4.589193,-1.171393 3.824076,0.07971 6.075371,0.875439 5.062139,1.789226 -1.049836,0.946798 -4.92923,1.672287 -5.035088,0.941616 z"
       id="path827"
       inkscape:connector-curvature="0" />
  </g>
</svg>
